<?xml version="1.0" standalone="yes"?>
<svg width="300px" height="300px" viewBox="0 0 300 300"
     xmlns="http://www.w3.org/2000/svg" version="1.1">
  <title>question icon 2</title>
  <desc>icon</desc>
  <path fill="#58595B" d="M205.052,26.778C152.028-3.836,84.236,14.334,53.622,67.354l64.165,37.045
  c10.154-17.58,32.64-23.604,50.217-13.453c17.588,10.151,23.614,32.636,13.463,50.22c-10.15,17.588-32.641,23.604-50.223,13.453
  l-36.409,63.073c-5.31-2.894-11.399-4.528-17.87-4.528c-20.693,0-37.464,16.767-37.464,37.46s16.771,37.47,37.464,37.47
  c20.693,0,37.465-16.776,37.465-37.47c0-10.915-4.674-20.746-12.128-27.597c51.64,24.457,114.251,5.542,143.327-44.813
  C276.243,125.189,258.078,57.392,205.052,26.778z M76.964,272.681c-12.183,0-22.057-9.871-22.057-22.057
  c0-12.176,9.874-22.057,22.057-22.057s22.061,9.881,22.061,22.057C99.025,262.81,89.147,272.681,76.964,272.681z"/>
</svg>